<svg viewBox="68.55 192.26 288.09 40.68" version="1.1" id="_(0@_1" xmlns="http://www.w3.org/2000/svg" fill="#e8eaed">
  <path d="M110.27,204.29c-.98-2.43-2.34-4.49-4.08-6.17-1.74-1.69-3.75-2.95-6.06-3.81-2.3-.85-4.79-1.29-7.45-1.29h-24.13v7.95h22.83c1.3,0,2.57.22,3.81.66s2.36,1.12,3.38,2.06c1.02.93,1.82,2.14,2.4,3.62s.88,3.24.88,5.29c0,1.65-.19,3.1-.58,4.36s-.92,2.35-1.6,3.26c-.68.91-1.47,1.67-2.35,2.26-.88.58-1.84,1.02-2.85,1.31-1.02.29-2.05.44-3.08.44h-13.27v-18.54h-9.56v26.49h24.13c2.14,0,4.15-.28,6.05-.85,1.9-.57,3.66-1.39,5.26-2.47,1.6-1.08,2.98-2.4,4.13-3.98,1.15-1.57,2.05-3.38,2.68-5.42.63-2.05.95-4.33.95-6.85,0-3.11-.49-5.87-1.48-8.31h0Z"></path>
  <path d="M157.14,201.79c-1.89-3.03-4.55-5.38-8.01-7.04-3.45-1.66-7.52-2.49-12.19-2.49-2.37,0-4.58.21-6.61.63-2.04.42-3.91,1.04-5.61,1.87-1.7.82-3.23,1.81-4.58,2.99-1.36,1.17-2.49,2.51-3.43,4.03-.94,1.51-1.64,3.18-2.13,4.99s-.73,3.75-.73,5.84c0,4.17.95,7.78,2.85,10.83s4.58,5.4,8.04,7.04c3.45,1.65,7.51,2.46,12.19,2.46,2.33,0,4.52-.21,6.56-.63s3.91-1.04,5.63-1.87c1.72-.82,3.24-1.81,4.58-2.99,1.33-1.17,2.48-2.51,3.43-4.02.95-1.52,1.66-3.18,2.13-5,.46-1.81.7-3.75.7-5.84,0-4.17-.94-7.77-2.82-10.8h0ZM149.61,216.18c-.27,1.12-.67,2.14-1.2,3.05-.54.91-1.18,1.72-1.93,2.43-.75.72-1.62,1.32-2.6,1.81-.98.49-2.05.87-3.21,1.12-1.15.25-2.39.38-3.72.38-2.64,0-4.95-.49-6.94-1.48s-3.51-2.42-4.58-4.28c-1.07-1.87-1.6-4.08-1.6-6.64,0-1.32.13-2.52.4-3.62.27-1.09.67-2.1,1.21-3.02.53-.91,1.18-1.72,1.95-2.43s1.64-1.32,2.61-1.81c.97-.49,2.03-.87,3.2-1.12s2.42-.38,3.76-.38c2.67,0,4.97.49,6.93,1.48,1.96.98,3.46,2.4,4.53,4.25,1.06,1.84,1.6,4.07,1.6,6.66,0,1.28-.13,2.48-.4,3.59h0Z"></path>
  <polygon points="172.62 216.03 172.62 232.17 164.01 232.17 164.01 193.02 172.62 216.03"></polygon>
  <polygon points="210.92 193.02 210.92 232.17 201.66 232.17 201.66 204.79 191.15 232.17 183.19 232.17 174.08 208.47 168.23 193.02 177.63 193.02 187.73 220.41 197.95 193.02 210.92 193.02"></polygon>
  <polygon points="226.59 193.02 217.03 193.02 217.03 232.17 250.32 232.17 250.32 224.22 226.59 224.22 226.59 193.02"></polygon>
  <rect height="39.15" width="9.56" y="193.02" x="253.24"></rect>
  <polygon points="284.67 212.85 292.88 232.17 283.09 232.17 265.51 193.02 276.17 193.02 284.67 212.85"></polygon>
  <polygon points="311.92 193.02 295.83 228.86 291.34 218.66 302.36 193.02 311.92 193.02"></polygon>
  <path d="M353.83,201.79c-1.89-3.03-4.56-5.38-8.02-7.04-3.45-1.66-7.51-2.49-12.19-2.49-2.37,0-4.57.21-6.61.63-2.03.42-3.9,1.04-5.6,1.87-1.7.82-3.23,1.81-4.58,2.99-1.36,1.17-2.49,2.51-3.43,4.03-.94,1.51-1.64,3.18-2.13,4.99s-.73,3.75-.73,5.84c0,4.17.95,7.78,2.85,10.83s4.58,5.4,8.03,7.04c3.45,1.65,7.52,2.46,12.19,2.46,2.34,0,4.53-.21,6.56-.63s3.91-1.04,5.63-1.87c1.72-.82,3.25-1.81,4.58-2.99,1.33-1.17,2.48-2.51,3.43-4.02.95-1.52,1.66-3.18,2.13-5,.46-1.81.7-3.75.7-5.84,0-4.17-.94-7.77-2.82-10.8h0ZM346.29,216.18c-.27,1.12-.67,2.14-1.2,3.05-.54.91-1.18,1.72-1.93,2.43-.75.72-1.62,1.32-2.6,1.81-.99.49-2.05.87-3.21,1.12-1.15.25-2.39.38-3.73.38-2.64,0-4.94-.49-6.93-1.48s-3.51-2.42-4.58-4.28c-1.07-1.87-1.6-4.08-1.6-6.64,0-1.32.13-2.52.4-3.62.27-1.09.67-2.1,1.21-3.02.53-.91,1.18-1.72,1.95-2.43.77-.71,1.63-1.32,2.61-1.81.97-.49,2.03-.87,3.2-1.12s2.42-.38,3.75-.38c2.67,0,4.98.49,6.94,1.48,1.95.98,3.46,2.4,4.53,4.25,1.06,1.84,1.6,4.07,1.6,6.66,0,1.28-.13,2.48-.4,3.59h-.01Z"></path>
</svg>
